# xmcd
#
# Track frame offsets:
#	150
#	22307
#	46067
#	58780
#	72725
#	90622
#	107520
#	127055
#	152670
#	170965
#
# Disc length: 2563 seconds
#
# Revision: 1
# Processed by: cddbd v1.5.2PL0 Copyright (c) Steve Scherf et al.
# Submitted via: audiograbber 1.83.01
#
DISCID=910a010a
DTITLE=Pawtuckets - Cloud 9 Ranch
DYEAR=1996
DGENRE=Country Rock
TTITLE0=Down At The Tracks
TTITLE1=Comin' Round
TTITLE2=Hard Luck Woman
TTITLE3=Train Of Sorrow
TTITLE4=Once What Was
TTITLE5=In A Blind
TTITLE6=Hold Out
TTITLE7=Good Friends
TTITLE8=End Of The Line
TTITLE9=Pride
EXTD=
EXTT0=
EXTT1=
EXTT2=
EXTT3=
EXTT4=
EXTT5=
EXTT6=
EXTT7=
EXTT8=
EXTT9=
PLAYORDER=
